<svg xmlns="http://www.w3.org/2000/svg" width="24" height="24" fill="none" viewBox="0 0 24 24"><path fill="color(display-p3 .1804 .8 .4431)" d="M12.487 3.462c-.2 0-.402.078-.557.23l-.007.005-5.217 3.016 5.203 5.203v.004l6.254 6.254 1.193-2.148-4.3-10.322-2.006-2.007a.8.8 0 0 0-.563-.235"/><path fill="color(display-p3 .28 .46 .82)" d="m6.718 6.7-3.014 5.212-.005.008a.79.79 0 0 0 .005 1.12l2.497 2.5 9.77 3.844 2.208-1.227-.059-.06-.015.002-6.125-6.135h-.008z"/><path fill="color(display-p3 .28 .46 .82)" d="m6.705 6.703 5.323 5.328h.007l6.127 6.134 2.332-.445.003-6.9-2.462-2.413c-.54-.529-1.368-.87-2.201-.981l.002-.027z"/><path fill="color(display-p3 .1804 .8 .4431)" d="m6.712 6.71 5.326 5.325v.008l6.13 6.13-.447 2.33h-6.9L8.41 18.04c-.529-.54-.869-1.368-.98-2.201l-.027.002-.691-9.132"/></svg>