<svg xmlns="http://www.w3.org/2000/svg" width="16" height="16" fill="none" viewBox="0 0 16 16"><path fill="#686F93" d="M9.015 2.8H12.8A2.2 2.2 0 0 1 15 5v.27A2 2 0 0 0 14 5h-1a.2.2 0 0 0-.2-.2H8.186L6.386 3H3.2a.2.2 0 0 0-.2.2V11c0 .11.09.2.2.2H5v2H3.2A2.2 2.2 0 0 1 1 11V3.2A2.2 2.2 0 0 1 3.2 1h4.014z"/><path fill="#69a7d3" fill-rule="evenodd" d="M7.222 6.222a1 1 0 0 0-1 1v6.556a1 1 0 0 0 1 1h6.556a1 1 0 0 0 1-1V7.222a1 1 0 0 0-1-1zm5.37 1.441a.633.633 0 0 0-.878.176l-3.09 4.636a.633.633 0 0 0 1.052.702l3.091-4.637a.633.633 0 0 0-.176-.877" clip-rule="evenodd"/></svg>