<svg xmlns="http://www.w3.org/2000/svg" width="16" height="16" fill="none" viewBox="0 0 16 16"><path fill="#57D7FF" d="M9.015 2.8H12.8A2.2 2.2 0 0 1 15 5v.651l-2.102-.822a.2.2 0 0 0-.068-.026l-.164-.065-.064.062H8.186L6.386 3H3.2a.2.2 0 0 0-.2.2V11c0 .11.09.2.2.2h2.75v1.444l.885.433v.003l.248.12H3.2A2.2 2.2 0 0 1 1 11V3.2A2.2 2.2 0 0 1 3.2 1h4.014zm1.48 10.4H8.77l.966-.719zm4.254-6.25v5.067a2.2 2.2 0 0 1-1.95 1.183h-.414l-2.11-2h2.327l.163.123V11.2h.035a.2.2 0 0 0 .2-.2V6.265zM9.281 11.2l-1.32.982-.711-.349V11.2z"/><path fill="#57D7FF" d="m14.749 6.95.001 6.103-1.785.697-3.127-2.964-1.877 1.396-.711-.349.001-3.662.714-.35 1.878 1.396 3.119-2.967zM11 9.994l1.765 1.328-.001-2.646zm-2.866.778.88-.778-.881-.767z"/></svg>