<svg width="18" height="18" viewBox="0 0 18 18" fill="none" xmlns="http://www.w3.org/2000/svg">
<path d="M14.1632 14.0031C11.1893 17.5463 4.98367 17.6054 2.19092 13.3899C-0.63296 9.12743 1.85838 3.7363 6.5826 0.978149C5.20827 8.30705 8.81586 15.163 14.1632 14.0031Z" fill="white"/>
<path d="M15.2667 7.57947C15.6082 7.18546 16.3827 6.90953 17.0001 7.02772C15.975 8.41667 16.0862 10.6835 14.961 12.806L13.9512 13.0258C12.0584 13.4364 10.3755 12.6217 9.14166 10.8461C10.038 11.1094 11.0159 10.9367 11.878 10.1791C13.1778 9.03641 13.2573 7.4613 15.2667 7.57947Z" fill="white"/>
<path d="M11.3487 1.45862C9.89603 4.41523 9.64904 7.62983 10.6417 9.80237C10.2527 9.977 9.87139 9.99729 9.51573 9.91174C9.05319 9.80044 8.57187 9.49495 8.16514 8.99866C7.59559 7.55946 7.27769 5.83584 7.2921 3.98206C8.37632 2.89276 9.76479 2.00896 11.3487 1.45862Z" fill="white"/>
</svg>
